<svg version="1.1" xmlns="http://www.w3.org/2000/svg" xmlns:xlink="http://www.w3.org/1999/xlink" x="0px" y="0px" viewBox="0 0 600 600" enable-background="new 0 0 600 600" xml:space="preserve" id="el_G33FBgUZb"><style>@-webkit-keyframes kf_el_U9DeFXt6SV_an_Tvsy25Iwh{16.67%{-webkit-transform: translate(299.45899963378906px, 414.20098876953125px) scale(0, 0) translate(-299.45899963378906px, -414.20098876953125px);transform: translate(299.45899963378906px, 414.20098876953125px) scale(0, 0) translate(-299.45899963378906px, -414.20098876953125px);}22.22%{-webkit-transform: translate(299.45899963378906px, 414.20098876953125px) scale(1.05, 1.05) translate(-299.45899963378906px, -414.20098876953125px);transform: translate(299.45899963378906px, 414.20098876953125px) scale(1.05, 1.05) translate(-299.45899963378906px, -414.20098876953125px);}24.44%{-webkit-transform: translate(299.45899963378906px, 414.20098876953125px) scale(1, 1) translate(-299.45899963378906px, -414.20098876953125px);transform: translate(299.45899963378906px, 414.20098876953125px) scale(1, 1) translate(-299.45899963378906px, -414.20098876953125px);}0%{-webkit-transform: translate(299.45899963378906px, 414.20098876953125px) scale(0, 0) translate(-299.45899963378906px, -414.20098876953125px);transform: translate(299.45899963378906px, 414.20098876953125px) scale(0, 0) translate(-299.45899963378906px, -414.20098876953125px);}100%{-webkit-transform: translate(299.45899963378906px, 414.20098876953125px) scale(1, 1) translate(-299.45899963378906px, -414.20098876953125px);transform: translate(299.45899963378906px, 414.20098876953125px) scale(1, 1) translate(-299.45899963378906px, -414.20098876953125px);}}@keyframes kf_el_U9DeFXt6SV_an_Tvsy25Iwh{16.67%{-webkit-transform: translate(299.45899963378906px, 414.20098876953125px) scale(0, 0) translate(-299.45899963378906px, -414.20098876953125px);transform: translate(299.45899963378906px, 414.20098876953125px) scale(0, 0) translate(-299.45899963378906px, -414.20098876953125px);}22.22%{-webkit-transform: translate(299.45899963378906px, 414.20098876953125px) scale(1.05, 1.05) translate(-299.45899963378906px, -414.20098876953125px);transform: translate(299.45899963378906px, 414.20098876953125px) scale(1.05, 1.05) translate(-299.45899963378906px, -414.20098876953125px);}24.44%{-webkit-transform: translate(299.45899963378906px, 414.20098876953125px) scale(1, 1) translate(-299.45899963378906px, -414.20098876953125px);transform: translate(299.45899963378906px, 414.20098876953125px) scale(1, 1) translate(-299.45899963378906px, -414.20098876953125px);}0%{-webkit-transform: translate(299.45899963378906px, 414.20098876953125px) scale(0, 0) translate(-299.45899963378906px, -414.20098876953125px);transform: translate(299.45899963378906px, 414.20098876953125px) scale(0, 0) translate(-299.45899963378906px, -414.20098876953125px);}100%{-webkit-transform: translate(299.45899963378906px, 414.20098876953125px) scale(1, 1) translate(-299.45899963378906px, -414.20098876953125px);transform: translate(299.45899963378906px, 414.20098876953125px) scale(1, 1) translate(-299.45899963378906px, -414.20098876953125px);}}@-webkit-keyframes kf_el_aqTxzw2xPzP_an_Zs05sqyO5{11.11%{-webkit-transform: translate(299.45849609375px, 333.6504821777344px) scale(0, 0) translate(-299.45849609375px, -333.6504821777344px);transform: translate(299.45849609375px, 333.6504821777344px) scale(0, 0) translate(-299.45849609375px, -333.6504821777344px);}16.67%{-webkit-transform: translate(299.45849609375px, 333.6504821777344px) scale(1.05, 1.05) translate(-299.45849609375px, -333.6504821777344px);transform: translate(299.45849609375px, 333.6504821777344px) scale(1.05, 1.05) translate(-299.45849609375px, -333.6504821777344px);}18.89%{-webkit-transform: translate(299.45849609375px, 333.6504821777344px) scale(1, 1) translate(-299.45849609375px, -333.6504821777344px);transform: translate(299.45849609375px, 333.6504821777344px) scale(1, 1) translate(-299.45849609375px, -333.6504821777344px);}0%{-webkit-transform: translate(299.45849609375px, 333.6504821777344px) scale(0, 0) translate(-299.45849609375px, -333.6504821777344px);transform: translate(299.45849609375px, 333.6504821777344px) scale(0, 0) translate(-299.45849609375px, -333.6504821777344px);}100%{-webkit-transform: translate(299.45849609375px, 333.6504821777344px) scale(1, 1) translate(-299.45849609375px, -333.6504821777344px);transform: translate(299.45849609375px, 333.6504821777344px) scale(1, 1) translate(-299.45849609375px, -333.6504821777344px);}}@keyframes kf_el_aqTxzw2xPzP_an_Zs05sqyO5{11.11%{-webkit-transform: translate(299.45849609375px, 333.6504821777344px) scale(0, 0) translate(-299.45849609375px, -333.6504821777344px);transform: translate(299.45849609375px, 333.6504821777344px) scale(0, 0) translate(-299.45849609375px, -333.6504821777344px);}16.67%{-webkit-transform: translate(299.45849609375px, 333.6504821777344px) scale(1.05, 1.05) translate(-299.45849609375px, -333.6504821777344px);transform: translate(299.45849609375px, 333.6504821777344px) scale(1.05, 1.05) translate(-299.45849609375px, -333.6504821777344px);}18.89%{-webkit-transform: translate(299.45849609375px, 333.6504821777344px) scale(1, 1) translate(-299.45849609375px, -333.6504821777344px);transform: translate(299.45849609375px, 333.6504821777344px) scale(1, 1) translate(-299.45849609375px, -333.6504821777344px);}0%{-webkit-transform: translate(299.45849609375px, 333.6504821777344px) scale(0, 0) translate(-299.45849609375px, -333.6504821777344px);transform: translate(299.45849609375px, 333.6504821777344px) scale(0, 0) translate(-299.45849609375px, -333.6504821777344px);}100%{-webkit-transform: translate(299.45849609375px, 333.6504821777344px) scale(1, 1) translate(-299.45849609375px, -333.6504821777344px);transform: translate(299.45849609375px, 333.6504821777344px) scale(1, 1) translate(-299.45849609375px, -333.6504821777344px);}}@-webkit-keyframes kf_el_hB3Xl8g_2pE_an_ogsYl3pk6{5.56%{-webkit-transform: translate(299.45849609375px, 253.10050201416016px) scale(0, 0) translate(-299.45849609375px, -253.10050201416016px);transform: translate(299.45849609375px, 253.10050201416016px) scale(0, 0) translate(-299.45849609375px, -253.10050201416016px);}11.11%{-webkit-transform: translate(299.45849609375px, 253.10050201416016px) scale(1.05, 1.05) translate(-299.45849609375px, -253.10050201416016px);transform: translate(299.45849609375px, 253.10050201416016px) scale(1.05, 1.05) translate(-299.45849609375px, -253.10050201416016px);}13.33%{-webkit-transform: translate(299.45849609375px, 253.10050201416016px) scale(1, 1) translate(-299.45849609375px, -253.10050201416016px);transform: translate(299.45849609375px, 253.10050201416016px) scale(1, 1) translate(-299.45849609375px, -253.10050201416016px);}0%{-webkit-transform: translate(299.45849609375px, 253.10050201416016px) scale(0, 0) translate(-299.45849609375px, -253.10050201416016px);transform: translate(299.45849609375px, 253.10050201416016px) scale(0, 0) translate(-299.45849609375px, -253.10050201416016px);}100%{-webkit-transform: translate(299.45849609375px, 253.10050201416016px) scale(1, 1) translate(-299.45849609375px, -253.10050201416016px);transform: translate(299.45849609375px, 253.10050201416016px) scale(1, 1) translate(-299.45849609375px, -253.10050201416016px);}}@keyframes kf_el_hB3Xl8g_2pE_an_ogsYl3pk6{5.56%{-webkit-transform: translate(299.45849609375px, 253.10050201416016px) scale(0, 0) translate(-299.45849609375px, -253.10050201416016px);transform: translate(299.45849609375px, 253.10050201416016px) scale(0, 0) translate(-299.45849609375px, -253.10050201416016px);}11.11%{-webkit-transform: translate(299.45849609375px, 253.10050201416016px) scale(1.05, 1.05) translate(-299.45849609375px, -253.10050201416016px);transform: translate(299.45849609375px, 253.10050201416016px) scale(1.05, 1.05) translate(-299.45849609375px, -253.10050201416016px);}13.33%{-webkit-transform: translate(299.45849609375px, 253.10050201416016px) scale(1, 1) translate(-299.45849609375px, -253.10050201416016px);transform: translate(299.45849609375px, 253.10050201416016px) scale(1, 1) translate(-299.45849609375px, -253.10050201416016px);}0%{-webkit-transform: translate(299.45849609375px, 253.10050201416016px) scale(0, 0) translate(-299.45849609375px, -253.10050201416016px);transform: translate(299.45849609375px, 253.10050201416016px) scale(0, 0) translate(-299.45849609375px, -253.10050201416016px);}100%{-webkit-transform: translate(299.45849609375px, 253.10050201416016px) scale(1, 1) translate(-299.45849609375px, -253.10050201416016px);transform: translate(299.45849609375px, 253.10050201416016px) scale(1, 1) translate(-299.45849609375px, -253.10050201416016px);}}@-webkit-keyframes kf_el_NckPmGOTcZ9_an_3BHEipY7Q{0%{-webkit-transform: translate(299.45899963378906px, 172.5500030517578px) scale(0, 0) translate(-299.45899963378906px, -172.5500030517578px);transform: translate(299.45899963378906px, 172.5500030517578px) scale(0, 0) translate(-299.45899963378906px, -172.5500030517578px);}5.56%{-webkit-transform: translate(299.45899963378906px, 172.5500030517578px) scale(1.05, 1.05) translate(-299.45899963378906px, -172.5500030517578px);transform: translate(299.45899963378906px, 172.5500030517578px) scale(1.05, 1.05) translate(-299.45899963378906px, -172.5500030517578px);}7.78%{-webkit-transform: translate(299.45899963378906px, 172.5500030517578px) scale(1, 1) translate(-299.45899963378906px, -172.5500030517578px);transform: translate(299.45899963378906px, 172.5500030517578px) scale(1, 1) translate(-299.45899963378906px, -172.5500030517578px);}100%{-webkit-transform: translate(299.45899963378906px, 172.5500030517578px) scale(1, 1) translate(-299.45899963378906px, -172.5500030517578px);transform: translate(299.45899963378906px, 172.5500030517578px) scale(1, 1) translate(-299.45899963378906px, -172.5500030517578px);}}@keyframes kf_el_NckPmGOTcZ9_an_3BHEipY7Q{0%{-webkit-transform: translate(299.45899963378906px, 172.5500030517578px) scale(0, 0) translate(-299.45899963378906px, -172.5500030517578px);transform: translate(299.45899963378906px, 172.5500030517578px) scale(0, 0) translate(-299.45899963378906px, -172.5500030517578px);}5.56%{-webkit-transform: translate(299.45899963378906px, 172.5500030517578px) scale(1.05, 1.05) translate(-299.45899963378906px, -172.5500030517578px);transform: translate(299.45899963378906px, 172.5500030517578px) scale(1.05, 1.05) translate(-299.45899963378906px, -172.5500030517578px);}7.78%{-webkit-transform: translate(299.45899963378906px, 172.5500030517578px) scale(1, 1) translate(-299.45899963378906px, -172.5500030517578px);transform: translate(299.45899963378906px, 172.5500030517578px) scale(1, 1) translate(-299.45899963378906px, -172.5500030517578px);}100%{-webkit-transform: translate(299.45899963378906px, 172.5500030517578px) scale(1, 1) translate(-299.45899963378906px, -172.5500030517578px);transform: translate(299.45899963378906px, 172.5500030517578px) scale(1, 1) translate(-299.45899963378906px, -172.5500030517578px);}}#el_G33FBgUZb *{-webkit-animation-duration: 3s;animation-duration: 3s;-webkit-animation-iteration-count: infinite;animation-iteration-count: infinite;-webkit-animation-timing-function: cubic-bezier(0, 0, 1, 1);animation-timing-function: cubic-bezier(0, 0, 1, 1);}#el_iWHneIiaPb{fill: #FFD579;stroke: #00265D;stroke-width: 4;}#el_rUnuWKM8tE{fill: #FFFFFF;stroke: #00265D;stroke-width: 4;}#el_zYMIyl9gu_{fill: #FFFFFF;stroke: #00265D;stroke-width: 4;}#el_dUc63mICvK{fill: #EFF3FA;stroke: #00265D;stroke-width: 4;}#el_pkJ6geqTrq{fill: #FFD579;stroke: #00265D;stroke-width: 4;}#el_EFHNUQbljI{fill: #FFFFFF;stroke: #00265D;stroke-width: 4;}#el_Xg_QNTWU9i{fill: #00265D;}#el_zc_PW1NMV1{fill: #00265D;}#el_nIxzHSKiD2{fill: #00265D;}#el_eQPZWjqfDr5{fill: #FFFFFF;}#el_DHjP_VzEcMh{fill: #00265D;}#el_6-h_lzpKdnV{fill: none;stroke: #00265D;stroke-width: 4;}#el_Adv6wkRKgH8{fill: none;stroke: #00265D;stroke-width: 4;}#el_Z3i4JeS99KO{fill: none;stroke: #00265D;stroke-width: 4;}#el_CsyJXiFbPHi{fill: #FFFFFF;}#el_2nMxXsjwJQ2{fill: #00265D;}#el_8Cp7F2CFZ9R{fill: none;stroke: #00265D;stroke-width: 4;}#el_Qakg60klKo5{fill: none;stroke: #00265D;stroke-width: 4;}#el_SAcgaVMm0vv{fill: none;stroke: #00265D;stroke-width: 4;}#el_SnEEX_TyQWA{fill: #FFFFFF;}#el_QNLbzvs5WB4{fill: #00265D;}#el_qfQsRDQId0W{fill: none;stroke: #00265D;stroke-width: 4;}#el_KQTGwzLuwlA{fill: none;stroke: #00265D;stroke-width: 4;}#el_4mvppSPSxzV{fill: none;stroke: #00265D;stroke-width: 4;}#el_-HIVWq0iCzB{fill: #FFFFFF;}#el_rL66Qbqxo2s{fill: #00265D;}#el_5MZbu60e91k{fill: none;stroke: #00265D;stroke-width: 4;}#el_iryOboc9UY0{fill: none;stroke: #00265D;stroke-width: 4;}#el_LTCTplZqicr{fill: none;stroke: #00265D;stroke-width: 4;}#el_NckPmGOTcZ9_an_3BHEipY7Q{-webkit-animation-fill-mode: backwards;animation-fill-mode: backwards;-webkit-transform: translate(299.45899963378906px, 172.5500030517578px) scale(0, 0) translate(-299.45899963378906px, -172.5500030517578px);transform: translate(299.45899963378906px, 172.5500030517578px) scale(0, 0) translate(-299.45899963378906px, -172.5500030517578px);-webkit-animation-name: kf_el_NckPmGOTcZ9_an_3BHEipY7Q;animation-name: kf_el_NckPmGOTcZ9_an_3BHEipY7Q;-webkit-animation-timing-function: cubic-bezier(0.42, 0, 0.58, 1);animation-timing-function: cubic-bezier(0.42, 0, 0.58, 1);}#el_hB3Xl8g_2pE_an_ogsYl3pk6{-webkit-animation-fill-mode: backwards;animation-fill-mode: backwards;-webkit-transform: translate(299.45849609375px, 253.10050201416016px) scale(0, 0) translate(-299.45849609375px, -253.10050201416016px);transform: translate(299.45849609375px, 253.10050201416016px) scale(0, 0) translate(-299.45849609375px, -253.10050201416016px);-webkit-animation-name: kf_el_hB3Xl8g_2pE_an_ogsYl3pk6;animation-name: kf_el_hB3Xl8g_2pE_an_ogsYl3pk6;-webkit-animation-timing-function: cubic-bezier(0.42, 0, 0.58, 1);animation-timing-function: cubic-bezier(0.42, 0, 0.58, 1);}#el_aqTxzw2xPzP_an_Zs05sqyO5{-webkit-animation-fill-mode: backwards;animation-fill-mode: backwards;-webkit-transform: translate(299.45849609375px, 333.6504821777344px) scale(0, 0) translate(-299.45849609375px, -333.6504821777344px);transform: translate(299.45849609375px, 333.6504821777344px) scale(0, 0) translate(-299.45849609375px, -333.6504821777344px);-webkit-animation-name: kf_el_aqTxzw2xPzP_an_Zs05sqyO5;animation-name: kf_el_aqTxzw2xPzP_an_Zs05sqyO5;-webkit-animation-timing-function: cubic-bezier(0.42, 0, 0.58, 1);animation-timing-function: cubic-bezier(0.42, 0, 0.58, 1);}#el_U9DeFXt6SV_an_Tvsy25Iwh{-webkit-animation-fill-mode: backwards;animation-fill-mode: backwards;-webkit-transform: translate(299.45899963378906px, 414.20098876953125px) scale(0, 0) translate(-299.45899963378906px, -414.20098876953125px);transform: translate(299.45899963378906px, 414.20098876953125px) scale(0, 0) translate(-299.45899963378906px, -414.20098876953125px);-webkit-animation-name: kf_el_U9DeFXt6SV_an_Tvsy25Iwh;animation-name: kf_el_U9DeFXt6SV_an_Tvsy25Iwh;-webkit-animation-timing-function: cubic-bezier(0.42, 0, 0.58, 1);animation-timing-function: cubic-bezier(0.42, 0, 0.58, 1);}</style>
<g id="el_wAi3TPIN5g">
	<g id="el_5qegaE9Npu">
		<g id="el_Se9QAbqrWD">
			
				<path stroke-linecap="round" stroke-linejoin="round" stroke-miterlimit="10" d="&#10;&#9;&#9;&#9;&#9;M414.388,525.034H185.612c-11.046,0-20-8.954-20-20V95.016c0-11.046,8.954-20,20-20h228.777c11.046,0,20,8.954,20,20v410.018&#10;&#9;&#9;&#9;&#9;C434.388,516.08,425.434,525.034,414.388,525.034z" id="el_iWHneIiaPb"/>
			<g id="el_xJ47ybS5VM">
				
					<line stroke-linecap="round" stroke-linejoin="round" stroke-miterlimit="10" x1="286.838" y1="98.587" x2="323.8" y2="98.587" id="el_rUnuWKM8tE"/>
				
					<path stroke-linecap="round" stroke-linejoin="round" stroke-miterlimit="10" d="&#10;&#9;&#9;&#9;&#9;&#9;M275.098,98.587L275.098,98.587L275.098,98.587z" id="el_zYMIyl9gu_"/>
			</g>
			
				<path stroke-linecap="round" stroke-linejoin="round" stroke-miterlimit="10" d="&#10;&#9;&#9;&#9;&#9;M408.653,463.155H191.347c-4.418,0-8-3.582-8-8V131.61c0-4.418,3.582-8,8-8h217.307c4.418,0,8,3.582,8,8v323.545&#10;&#9;&#9;&#9;&#9;C416.653,459.573,413.072,463.155,408.653,463.155z" id="el_dUc63mICvK"/>
			
				<path stroke-linecap="round" stroke-linejoin="round" stroke-miterlimit="10" d="&#10;&#9;&#9;&#9;&#9;M185.77,366.696" id="el_pkJ6geqTrq"/>
			
				<circle stroke-linecap="round" stroke-linejoin="round" stroke-miterlimit="10" cx="300.013" cy="493.734" r="14.678" id="el_EFHNUQbljI"/>
		</g>
		<path d="M436,210.865h-1.612v-40.199H436c2.209,0,4,1.791,4,4v32.199C440,209.074,438.209,210.865,436,210.865z" id="el_Xg_QNTWU9i"/>
		<path d="M164,170.665h1.612v40.199H164c-2.209,0-4-1.791-4-4v-32.199C160,172.456,161.791,170.665,164,170.665z" id="el_zc_PW1NMV1"/>
		<path d="M164,217.299h1.612v40.199H164c-2.209,0-4-1.791-4-4v-32.199C160,219.09,161.791,217.299,164,217.299z" id="el_nIxzHSKiD2"/>
	</g>
</g>
<g id="el_U9DeFXt6SV_an_Tvsy25Iwh" data-animator-group="true" data-animator-type="2"><g id="el_U9DeFXt6SV">
	<g id="el_Gj999n_Q_i">
		<path d="M401.258,451.951H197.66c-2.209,0-4-1.791-4-4v-67.5c0-2.209,1.791-4,4-4h203.598c2.209,0,4,1.791,4,4&#10;&#9;&#9;&#9;v67.5C405.258,450.16,403.467,451.951,401.258,451.951z" id="el_eQPZWjqfDr5"/>
		<g id="el_pRIRrnABASM">
			<path d="M253.966,413.448l-19.621-19.475c-0.557-0.553-1.458-0.553-2.015,0l-19.621,19.475&#10;&#9;&#9;&#9;&#9;c-0.499,0.494-0.574,1.294-0.129,1.886c0.279,0.37,0.741,0.559,1.205,0.559h2.538c0.308,0,0.558,0.25,0.558,0.558v16.963&#10;&#9;&#9;&#9;&#9;c0,0.79,0.64,1.43,1.43,1.43h10.2c0.79,0,1.43-0.64,1.43-1.43v-8.024c0-0.616,0.5-1.116,1.116-1.116h4.562&#10;&#9;&#9;&#9;&#9;c0.616,0,1.116,0.5,1.116,1.116v8.025c0,0.79,0.64,1.43,1.43,1.43h10.199c0.79,0,1.43-0.64,1.43-1.43v-16.963&#10;&#9;&#9;&#9;&#9;c0-0.308,0.25-0.558,0.558-0.558h2.532c0.466,0,0.93-0.188,1.211-0.56C254.541,414.742,254.464,413.942,253.966,413.448z" id="el_DHjP_VzEcMh"/>
			<g id="el_3cSojQ6DvKV">
				
					<line stroke-linecap="round" stroke-linejoin="round" stroke-miterlimit="10" x1="283.873" y1="398.499" x2="318.684" y2="398.499" id="el_6-h_lzpKdnV"/>
				
					<line stroke-linecap="round" stroke-linejoin="round" stroke-miterlimit="10" x1="283.873" y1="414.201" x2="384.641" y2="414.201" id="el_Adv6wkRKgH8"/>
				
					<line stroke-linecap="round" stroke-linejoin="round" stroke-miterlimit="10" x1="283.873" y1="429.902" x2="384.641" y2="429.902" id="el_Z3i4JeS99KO"/>
			</g>
		</g>
	</g>
</g></g>
<g id="el_aqTxzw2xPzP_an_Zs05sqyO5" data-animator-group="true" data-animator-type="2"><g id="el_aqTxzw2xPzP">
	<g id="el_zTiwJDHo8n_">
		<path d="M402.277,371.4H196.64c-1.646,0-2.98-1.334-2.98-2.98v-69.539c0-1.646,1.334-2.98,2.98-2.98h205.637&#10;&#9;&#9;&#9;c1.646,0,2.98,1.334,2.98,2.98v69.539C405.258,370.066,403.923,371.4,402.277,371.4z" id="el_CsyJXiFbPHi"/>
		<g id="el_ARoWvr4cq74">
			<path d="M253.966,332.898l-19.621-19.475c-0.557-0.553-1.458-0.553-2.015,0l-19.621,19.475&#10;&#9;&#9;&#9;&#9;c-0.499,0.494-0.574,1.294-0.129,1.886c0.279,0.37,0.741,0.559,1.205,0.559h2.538c0.308,0,0.558,0.25,0.558,0.558v16.963&#10;&#9;&#9;&#9;&#9;c0,0.79,0.64,1.43,1.43,1.43h10.2c0.79,0,1.43-0.64,1.43-1.43v-8.024c0-0.616,0.5-1.116,1.116-1.116h4.562&#10;&#9;&#9;&#9;&#9;c0.616,0,1.116,0.5,1.116,1.116v8.025c0,0.79,0.64,1.43,1.43,1.43h10.199c0.79,0,1.43-0.64,1.43-1.43v-16.963&#10;&#9;&#9;&#9;&#9;c0-0.308,0.25-0.558,0.558-0.558h2.532c0.466,0,0.93-0.188,1.211-0.56C254.541,334.191,254.464,333.392,253.966,332.898z" id="el_2nMxXsjwJQ2"/>
			<g id="el_wymnNdY3Wm4">
				
					<line stroke-linecap="round" stroke-linejoin="round" stroke-miterlimit="10" x1="283.873" y1="317.949" x2="318.684" y2="317.949" id="el_8Cp7F2CFZ9R"/>
				
					<line stroke-linecap="round" stroke-linejoin="round" stroke-miterlimit="10" x1="283.873" y1="333.651" x2="384.641" y2="333.651" id="el_Qakg60klKo5"/>
				
					<line stroke-linecap="round" stroke-linejoin="round" stroke-miterlimit="10" x1="283.873" y1="349.352" x2="384.641" y2="349.352" id="el_SAcgaVMm0vv"/>
			</g>
		</g>
	</g>
</g></g>
<g id="el_hB3Xl8g_2pE_an_ogsYl3pk6" data-animator-group="true" data-animator-type="2"><g id="el_hB3Xl8g_2pE">
	<g id="el_o_OeUMyukqL">
		<path d="M402.277,290.85H196.64c-1.646,0-2.98-1.334-2.98-2.98v-69.539c0-1.646,1.334-2.98,2.98-2.98h205.637&#10;&#9;&#9;&#9;c1.646,0,2.98,1.334,2.98,2.98v69.539C405.258,289.516,403.923,290.85,402.277,290.85z" id="el_SnEEX_TyQWA"/>
		<g id="el_Ra7Gbg_aVq0">
			<path d="M253.966,252.348l-19.621-19.475c-0.557-0.553-1.458-0.553-2.015,0l-19.621,19.475&#10;&#9;&#9;&#9;&#9;c-0.499,0.494-0.574,1.294-0.129,1.886c0.279,0.37,0.741,0.559,1.205,0.559h2.538c0.308,0,0.558,0.25,0.558,0.558v16.963&#10;&#9;&#9;&#9;&#9;c0,0.79,0.64,1.43,1.43,1.43h10.2c0.79,0,1.43-0.64,1.43-1.43v-8.024c0-0.616,0.5-1.116,1.116-1.116h4.562&#10;&#9;&#9;&#9;&#9;c0.616,0,1.116,0.5,1.116,1.116v8.025c0,0.79,0.64,1.43,1.43,1.43h10.199c0.79,0,1.43-0.64,1.43-1.43V255.35&#10;&#9;&#9;&#9;&#9;c0-0.308,0.25-0.558,0.558-0.558h2.532c0.466,0,0.93-0.188,1.211-0.56C254.541,253.641,254.464,252.842,253.966,252.348z" id="el_QNLbzvs5WB4"/>
			<g id="el_HptOzxcX2Gj">
				
					<line stroke-linecap="round" stroke-linejoin="round" stroke-miterlimit="10" x1="283.873" y1="237.399" x2="318.684" y2="237.399" id="el_qfQsRDQId0W"/>
				
					<line stroke-linecap="round" stroke-linejoin="round" stroke-miterlimit="10" x1="283.873" y1="253.1" x2="384.641" y2="253.1" id="el_KQTGwzLuwlA"/>
				
					<line stroke-linecap="round" stroke-linejoin="round" stroke-miterlimit="10" x1="283.873" y1="268.802" x2="384.641" y2="268.802" id="el_4mvppSPSxzV"/>
			</g>
		</g>
	</g>
</g></g>
<g id="el_NckPmGOTcZ9_an_3BHEipY7Q" data-animator-group="true" data-animator-type="2"><g id="el_NckPmGOTcZ9">
	<g id="el_irHzBUIgIum">
		<path d="M401.258,210.3H197.66c-2.209,0-4-1.791-4-4v-67.5c0-2.209,1.791-4,4-4h203.598c2.209,0,4,1.791,4,4v67.5&#10;&#9;&#9;&#9;C405.258,208.509,403.467,210.3,401.258,210.3z" id="el_-HIVWq0iCzB"/>
		<g id="el_chLEs9eGB2p">
			<path d="M253.966,171.797l-19.621-19.475c-0.557-0.553-1.458-0.553-2.015,0l-19.621,19.475&#10;&#9;&#9;&#9;&#9;c-0.499,0.494-0.574,1.294-0.129,1.886c0.279,0.37,0.741,0.559,1.205,0.559h2.538c0.308,0,0.558,0.25,0.558,0.558v16.963&#10;&#9;&#9;&#9;&#9;c0,0.79,0.64,1.43,1.43,1.43h10.2c0.79,0,1.43-0.64,1.43-1.43v-8.024c0-0.616,0.5-1.116,1.116-1.116h4.562&#10;&#9;&#9;&#9;&#9;c0.616,0,1.116,0.5,1.116,1.116v8.025c0,0.79,0.64,1.43,1.43,1.43h10.199c0.79,0,1.43-0.64,1.43-1.43V174.8&#10;&#9;&#9;&#9;&#9;c0-0.308,0.25-0.558,0.558-0.558h2.532c0.466,0,0.93-0.188,1.211-0.56C254.541,173.091,254.464,172.291,253.966,171.797z" id="el_rL66Qbqxo2s"/>
			<g id="el_95sPsOwrvqc">
				
					<line stroke-linecap="round" stroke-linejoin="round" stroke-miterlimit="10" x1="283.873" y1="156.849" x2="318.684" y2="156.849" id="el_5MZbu60e91k"/>
				
					<line stroke-linecap="round" stroke-linejoin="round" stroke-miterlimit="10" x1="283.873" y1="172.55" x2="384.641" y2="172.55" id="el_iryOboc9UY0"/>
				
					<line stroke-linecap="round" stroke-linejoin="round" stroke-miterlimit="10" x1="283.873" y1="188.252" x2="384.641" y2="188.252" id="el_LTCTplZqicr"/>
			</g>
		</g>
	</g>
</g></g>
</svg>