<svg version="1.1" xmlns="http://www.w3.org/2000/svg" xmlns:xlink="http://www.w3.org/1999/xlink" x="0px" y="0px" viewBox="0 0 600 600" style="enable-background:new 0 0 600 600;" xml:space="preserve" id="el_ksMrSYJ6Z"><style>@-webkit-keyframes el_iF21gjzOCh_72ZiVMPoY_Animation{92%{-webkit-transform: translate(0px, 0px);transform: translate(0px, 0px);}94%{-webkit-transform: translate(-5px, 0px);transform: translate(-5px, 0px);}96%{-webkit-transform: translate(5px, 0px);transform: translate(5px, 0px);}98%{-webkit-transform: translate(-5px, 0px);transform: translate(-5px, 0px);}100%{-webkit-transform: translate(0px, 0px);transform: translate(0px, 0px);}0%{-webkit-transform: translate(0px, 0px);transform: translate(0px, 0px);}}@keyframes el_iF21gjzOCh_72ZiVMPoY_Animation{92%{-webkit-transform: translate(0px, 0px);transform: translate(0px, 0px);}94%{-webkit-transform: translate(-5px, 0px);transform: translate(-5px, 0px);}96%{-webkit-transform: translate(5px, 0px);transform: translate(5px, 0px);}98%{-webkit-transform: translate(-5px, 0px);transform: translate(-5px, 0px);}100%{-webkit-transform: translate(0px, 0px);transform: translate(0px, 0px);}0%{-webkit-transform: translate(0px, 0px);transform: translate(0px, 0px);}}@-webkit-keyframes el_iF21gjzOCh_8MQGIxP1E_Animation{0%{-webkit-transform: scale(1, 1);transform: scale(1, 1);}2%{-webkit-transform: scale(1.05, 1.05);transform: scale(1.05, 1.05);}6%{-webkit-transform: scale(1, 1);transform: scale(1, 1);}100%{-webkit-transform: scale(1, 1);transform: scale(1, 1);}}@keyframes el_iF21gjzOCh_8MQGIxP1E_Animation{0%{-webkit-transform: scale(1, 1);transform: scale(1, 1);}2%{-webkit-transform: scale(1.05, 1.05);transform: scale(1.05, 1.05);}6%{-webkit-transform: scale(1, 1);transform: scale(1, 1);}100%{-webkit-transform: scale(1, 1);transform: scale(1, 1);}}@-webkit-keyframes el_IP3r4GY41D_T-lOUqBWJ_Animation{0%{-webkit-transform: translate(0px, 0px);transform: translate(0px, 0px);}4%{-webkit-transform: translate(0px, -3px);transform: translate(0px, -3px);}10%{-webkit-transform: translate(0px, 0px);transform: translate(0px, 0px);}100%{-webkit-transform: translate(0px, 0px);transform: translate(0px, 0px);}}@keyframes el_IP3r4GY41D_T-lOUqBWJ_Animation{0%{-webkit-transform: translate(0px, 0px);transform: translate(0px, 0px);}4%{-webkit-transform: translate(0px, -3px);transform: translate(0px, -3px);}10%{-webkit-transform: translate(0px, 0px);transform: translate(0px, 0px);}100%{-webkit-transform: translate(0px, 0px);transform: translate(0px, 0px);}}@-webkit-keyframes el_jAzvDr0FGX0_yD4zIEvD1_Animation{0%{-webkit-transform: rotate(0deg);transform: rotate(0deg);}100%{-webkit-transform: rotate(360deg);transform: rotate(360deg);}}@keyframes el_jAzvDr0FGX0_yD4zIEvD1_Animation{0%{-webkit-transform: rotate(0deg);transform: rotate(0deg);}100%{-webkit-transform: rotate(360deg);transform: rotate(360deg);}}@-webkit-keyframes el_0MVmnQYi4OY_lUcqgCLD4_Animation{0%{-webkit-transform: rotate(0deg);transform: rotate(0deg);}100%{-webkit-transform: rotate(720deg);transform: rotate(720deg);}}@keyframes el_0MVmnQYi4OY_lUcqgCLD4_Animation{0%{-webkit-transform: rotate(0deg);transform: rotate(0deg);}100%{-webkit-transform: rotate(720deg);transform: rotate(720deg);}}#el_ksMrSYJ6Z *{-webkit-animation-duration: 5s;animation-duration: 5s;-webkit-animation-iteration-count: infinite;animation-iteration-count: infinite;-webkit-animation-timing-function: cubic-bezier(0, 0, 1, 1);animation-timing-function: cubic-bezier(0, 0, 1, 1);}#el_0uV1m7Uqtj{fill: #FFD579;stroke: #00265D;stroke-width: 3;stroke-linecap: round;stroke-linejoin: round;stroke-miterlimit: 10;}#el_LZsR_aYHPu{overflow: visible;opacity: 0.1;fill: #00265D;}#el_jo7d8t-xBU{fill: #FFFFFF;stroke: #00265D;stroke-width: 3;stroke-linecap: round;stroke-linejoin: round;stroke-miterlimit: 10;}#el_Wbg6N8UJ9o{opacity: 0.3;fill: none;stroke: #FFFFFF;stroke-width: 4;stroke-linecap: round;stroke-linejoin: round;stroke-miterlimit: 10;}#el_L7F1Q5AxPV{fill: none;stroke: #00265D;stroke-width: 3;stroke-linecap: round;stroke-linejoin: round;stroke-miterlimit: 10;}#el_iaC9vIHMCD{fill: none;stroke: #00265D;stroke-width: 3;stroke-linecap: round;stroke-linejoin: round;stroke-miterlimit: 10;}#el_P3Z-XXM0W9{fill: none;stroke: #00265D;stroke-width: 3;stroke-linecap: round;stroke-linejoin: round;stroke-miterlimit: 10;}#el_myYBDMoFmi{fill: none;stroke: #00265D;stroke-width: 3;stroke-linecap: round;stroke-linejoin: round;stroke-miterlimit: 10;}#el_8BBrh6gj1X{fill: none;stroke: #00265D;stroke-width: 3;stroke-linecap: round;stroke-linejoin: round;stroke-miterlimit: 10;}#el_-AUTrB5iGU{fill: #E6176D;stroke: #00265D;stroke-width: 3;stroke-linecap: round;stroke-linejoin: round;stroke-miterlimit: 10;}#el_arWu-4qMEmY{opacity: 0.1;}#el_ZTV4b6JrwJP{fill: #00265D;}#el_tbvflGKra-u{fill: #FFFFFF;stroke: #00265D;stroke-width: 3;stroke-linecap: round;stroke-linejoin: round;stroke-miterlimit: 10;}#el_wdr-8GiqwFt{opacity: 0.1;}#el_VJrnIWrRqeE{fill: #00265D;}#el_VRsoKf5fp_8{fill: #FFD579;stroke: #00265D;stroke-width: 3;stroke-linecap: round;stroke-linejoin: round;stroke-miterlimit: 10;}#el_WIstXGfTHtL{fill: #FFFFFF;stroke: #00265D;stroke-width: 3;stroke-linecap: round;stroke-linejoin: round;stroke-miterlimit: 10;}#el_fnANVuS7xwT{fill: #FFFFFF;stroke: #00265D;stroke-width: 3;stroke-linecap: round;stroke-linejoin: round;stroke-miterlimit: 10;}#el_UTm03wBze3S{fill: none;stroke: #00265D;stroke-width: 3;stroke-linecap: round;stroke-linejoin: round;stroke-miterlimit: 10;}#el_G2dg1XOChW9{fill: none;stroke: #00265D;stroke-width: 3;stroke-linecap: round;stroke-linejoin: round;stroke-miterlimit: 10;}#el_IoOnhFW7Aul{fill: none;stroke: #00265D;stroke-width: 3;stroke-linecap: round;stroke-linejoin: round;stroke-miterlimit: 10;}#el_3u2uBYERgWp{fill: none;stroke: #00265D;stroke-width: 3;stroke-linecap: round;stroke-linejoin: round;stroke-miterlimit: 10;}#el_icFqMmqek5i{fill: none;stroke: #00265D;stroke-width: 3;stroke-linecap: round;stroke-linejoin: round;stroke-miterlimit: 10;}#el_ddeVnX_fGQQ{fill: none;stroke: #00265D;stroke-width: 3;stroke-linecap: round;stroke-linejoin: round;stroke-miterlimit: 10;}#el_BBVLnpFznmz{fill: none;stroke: #00265D;stroke-width: 3;stroke-linecap: round;stroke-linejoin: round;stroke-miterlimit: 10;}#el__DzlBSrORx-{fill: none;stroke: #00265D;stroke-width: 3;stroke-linecap: round;stroke-linejoin: round;stroke-miterlimit: 10;}#el_RJnWtC25JP3{fill: none;stroke: #00265D;stroke-width: 3;stroke-linecap: round;stroke-linejoin: round;stroke-miterlimit: 10;}#el_EavkUAlhBLE{fill: none;stroke: #00265D;stroke-width: 3;stroke-linecap: round;stroke-linejoin: round;stroke-miterlimit: 10;}#el_yM_4aXP9XV4{fill: none;stroke: #00265D;stroke-width: 3;stroke-linecap: round;stroke-linejoin: round;stroke-miterlimit: 10;}#el_uImwnlJz5gP{fill: none;stroke: #00265D;stroke-width: 3;stroke-linecap: round;stroke-linejoin: round;stroke-miterlimit: 10;}#el_E3hQT8RRTCn{fill: none;stroke: #00265D;stroke-width: 3;stroke-linecap: round;stroke-linejoin: round;stroke-miterlimit: 10;}#el_KdH8WE7452i{fill: none;stroke: #00265D;stroke-width: 3;stroke-linecap: round;stroke-linejoin: round;stroke-miterlimit: 10;}#el_VJ88NMwgrun{fill: none;stroke: #00265D;stroke-width: 3;stroke-linecap: round;stroke-linejoin: round;stroke-miterlimit: 10;}#el_iLqJVxpmAa4{fill: none;stroke: #00265D;stroke-width: 3;stroke-linecap: round;stroke-linejoin: round;stroke-miterlimit: 10;}#el_hYY1CkxFgSi{fill: none;stroke: #00265D;stroke-width: 3;stroke-linecap: round;stroke-linejoin: round;stroke-miterlimit: 10;}#el_x2K_cpM5E2X{fill: none;stroke: #00265D;stroke-width: 3;stroke-linecap: round;stroke-linejoin: round;stroke-miterlimit: 10;}#el_BkMMYzTEy6P{fill: none;stroke: #00265D;stroke-width: 3;stroke-linecap: round;stroke-linejoin: round;stroke-miterlimit: 10;}#el_QgMyMdvxWWY{fill: none;stroke: #00265D;stroke-width: 3;stroke-linecap: round;stroke-linejoin: round;stroke-miterlimit: 10;}#el_9k-JGV5wYGO{fill: none;stroke: #00265D;stroke-width: 3;stroke-linecap: round;stroke-linejoin: round;stroke-miterlimit: 10;}#el_HGBFzWa2HU8{fill: none;stroke: #00265D;stroke-width: 3;stroke-linecap: round;stroke-linejoin: round;stroke-miterlimit: 10;}#el_ytxk5O7QJEr{fill: none;stroke: #00265D;stroke-width: 3;stroke-linecap: round;stroke-linejoin: round;stroke-miterlimit: 10;}#el_ljcbATjdzez{fill: none;stroke: #00265D;stroke-width: 3;stroke-linecap: round;stroke-linejoin: round;stroke-miterlimit: 10;}#el_wxsjjIWPPmo{fill: none;stroke: #00265D;stroke-width: 3;stroke-linecap: round;stroke-linejoin: round;stroke-miterlimit: 10;}#el_LzX6Q4G_sH6{fill: none;stroke: #00265D;stroke-width: 3;stroke-linecap: round;stroke-linejoin: round;stroke-miterlimit: 10;}#el_4pt24QmXUFc{fill: none;stroke: #00265D;stroke-width: 3;stroke-linecap: round;stroke-linejoin: round;stroke-miterlimit: 10;}#el_m9xd501QbYM{fill: none;stroke: #00265D;stroke-width: 3;stroke-linecap: round;stroke-linejoin: round;stroke-miterlimit: 10;}#el_MBHYyTm3tDK{fill: none;stroke: #00265D;stroke-width: 3;stroke-linecap: round;stroke-linejoin: round;stroke-miterlimit: 10;}#el_RsQ4XAGSXHy{fill: none;stroke: #00265D;stroke-width: 3;stroke-linecap: round;stroke-linejoin: round;stroke-miterlimit: 10;}#el_eqf56GDnlNl{fill: none;stroke: #00265D;stroke-width: 3;stroke-linecap: round;stroke-linejoin: round;stroke-miterlimit: 10;}#el_D1lw1JdqFpI{fill: none;stroke: #00265D;stroke-width: 3;stroke-linecap: round;stroke-linejoin: round;stroke-miterlimit: 10;}#el_xrnnfzrvzSZ{opacity: 0.3;fill: none;stroke: #FFFFFF;stroke-width: 8;stroke-linecap: round;stroke-linejoin: round;stroke-miterlimit: 10;}#el_XMdmfV-1xE7{opacity: 0.1;}#el_yPXlcn2lhFE{fill: #00265D;}#el_J0L-p9v31yE{fill: #E6176D;stroke: #00265D;stroke-width: 3;stroke-linecap: round;stroke-linejoin: round;stroke-miterlimit: 10;}#el_cCRrJwk2Eps{opacity: 0.1;fill: #00265D;}#el_wgkaar51ba5{fill: none;}#el_YkgJVh03iCj{fill: #FFD579;stroke: #00265D;stroke-width: 3;stroke-linecap: round;stroke-linejoin: round;stroke-miterlimit: 10;}#el_E2M4-ZZ4CEv{opacity: 0.1;fill: #00265D;}#el_G1R8YeJGCaW{fill: none;}#el_NNIbogIi0Kb{fill: #FFFFFF;stroke: #00265D;stroke-width: 3;stroke-linecap: round;stroke-linejoin: round;stroke-miterlimit: 10;}#el_NZ0Ki1qDezr{fill: #FFD579;stroke: #00265D;stroke-width: 3;stroke-linecap: round;stroke-linejoin: round;stroke-miterlimit: 10;}#el_YeiXTGg4rs9{opacity: 0.1;fill: none;stroke: #00265D;stroke-width: 3;stroke-linecap: round;stroke-linejoin: round;stroke-miterlimit: 10;}#el_0MVmnQYi4OY_lUcqgCLD4{-webkit-animation-name: el_0MVmnQYi4OY_lUcqgCLD4_Animation;animation-name: el_0MVmnQYi4OY_lUcqgCLD4_Animation;-webkit-transform-origin: 50% 50%;transform-origin: 50% 50%;transform-box: fill-box;-webkit-transform: rotate(0deg);transform: rotate(0deg);}#el_jAzvDr0FGX0_yD4zIEvD1{-webkit-animation-name: el_jAzvDr0FGX0_yD4zIEvD1_Animation;animation-name: el_jAzvDr0FGX0_yD4zIEvD1_Animation;-webkit-transform-origin: 50% 50%;transform-origin: 50% 50%;transform-box: fill-box;-webkit-transform: rotate(0deg);transform: rotate(0deg);}#el_IP3r4GY41D_T-lOUqBWJ{-webkit-animation-name: el_IP3r4GY41D_T-lOUqBWJ_Animation;animation-name: el_IP3r4GY41D_T-lOUqBWJ_Animation;-webkit-transform-origin: 50% 50%;transform-origin: 50% 50%;transform-box: fill-box;-webkit-transform: translate(0px, 0px);transform: translate(0px, 0px);-webkit-animation-timing-function: cubic-bezier(0.42, 0, 0.58, 1);animation-timing-function: cubic-bezier(0.42, 0, 0.58, 1);}#el_iF21gjzOCh_8MQGIxP1E{-webkit-animation-name: el_iF21gjzOCh_8MQGIxP1E_Animation;animation-name: el_iF21gjzOCh_8MQGIxP1E_Animation;-webkit-transform-origin: 50% 50%;transform-origin: 50% 50%;transform-box: fill-box;-webkit-transform: scale(1, 1);transform: scale(1, 1);-webkit-animation-timing-function: cubic-bezier(0.42, 0, 0.58, 1);animation-timing-function: cubic-bezier(0.42, 0, 0.58, 1);}#el_iF21gjzOCh_72ZiVMPoY{-webkit-transform-origin: 50% 50%;transform-origin: 50% 50%;transform-box: fill-box;-webkit-animation-name: el_iF21gjzOCh_72ZiVMPoY_Animation;animation-name: el_iF21gjzOCh_72ZiVMPoY_Animation;-webkit-animation-timing-function: cubic-bezier(0.42, 0, 0.58, 1);animation-timing-function: cubic-bezier(0.42, 0, 0.58, 1);-webkit-transform: translate(0px, 0px);transform: translate(0px, 0px);}</style>

<g id="el_iF21gjzOCh_72ZiVMPoY" data-animator-group="true" data-animator-type="0"><g id="el_iF21gjzOCh_8MQGIxP1E" data-animator-group="true" data-animator-type="2"><g id="el_iF21gjzOCh">
	<g id="el_IP3r4GY41D_T-lOUqBWJ" data-animator-group="true" data-animator-type="0"><g id="el_IP3r4GY41D">
		<path id="el_0uV1m7Uqtj" d="M314.4,113h-28.8c-4.8,0-8.6,3.9-8.6,8.6s3.9,8.6,8.6,8.6h9.7v27.5h9.5v-27.5h9.7&#10;&#9;&#9;&#9;c4.8,0,8.6-3.9,8.6-8.6S319.1,113,314.4,113z"/>
		<g id="el_I39eKx-3yC">
			<defs>
				<path id="XMLID_2_" d="M316.1,130.3H284c-3.4,0-6.2-2.8-6.2-6.2l0,0h44.5l0,0C322.3,127.5,319.5,130.3,316.1,130.3z"/>
			</defs>
			<use xlink:href="#XMLID_2_" id="el_LZsR_aYHPu"/>
			<clipPath id="XMLID_10_">
				<use xlink:href="#XMLID_2_" style="overflow:visible;opacity:0.1;"/>
			</clipPath>
		</g>
		<line x1="304.7" y1="130.3" x2="299.9" y2="130.3" id="el_jo7d8t-xBU"/>
		<line x1="285.4" y1="118.1" x2="307.3" y2="118.1" id="el_Wbg6N8UJ9o"/>
		<g id="el_VN-B0W36Og">
			<line x1="286.2" y1="124.1" x2="286.2" y2="119.2" id="el_L7F1Q5AxPV"/>
			<line x1="293.1" y1="124.1" x2="293.1" y2="119.2" id="el_iaC9vIHMCD"/>
			<line x1="299.9" y1="124.1" x2="299.9" y2="119.2" id="el_P3Z-XXM0W9"/>
			<line x1="306.8" y1="124.1" x2="306.8" y2="119.2" id="el_myYBDMoFmi"/>
			<line x1="313.6" y1="124.1" x2="313.6" y2="119.2" id="el_8BBrh6gj1X"/>
		</g>
	</g></g>
	<g id="el_6XOaJKCPjz">
		<path id="el_-AUTrB5iGU" d="M219.8,147.8L219.8,147.8c-2.6,1.3-3.5,4.5-2.2,7.1l77.8,148c0.1,0.3,0.4,0.4,0.7,0.2l8.3-4.4&#10;&#9;&#9;&#9;c0.3-0.1,0.4-0.4,0.2-0.7l-77.8-148C225.5,147.5,222.3,146.5,219.8,147.8z"/>
		<g id="el_arWu-4qMEmY">
			<path d="M217.9,155.5l3.4,6.5c3-1.7,6.1-3.3,9.3-4.9l-3.4-6.5C224,152.1,220.9,153.8,217.9,155.5z" id="el_ZTV4b6JrwJP"/>
		</g>
		<g id="el_m6bxUloxm3l">
			<path id="el_tbvflGKra-u" d="M380.1,147.8L380.1,147.8c2.6,1.3,3.5,4.5,2.2,7.1l-77.8,148c-0.1,0.3-0.4,0.4-0.7,0.2&#10;&#9;&#9;&#9;&#9;l-8.3-4.4c-0.3-0.1-0.4-0.4-0.2-0.7L373,150C374.4,147.5,377.6,146.5,380.1,147.8z"/>
		</g>
		<g id="el_wdr-8GiqwFt">
			<path d="M382,155.5l-3.4,6.5c-3-1.7-6.1-3.3-9.3-4.9l3.4-6.5C375.9,152.1,379,153.8,382,155.5z" id="el_VJrnIWrRqeE"/>
		</g>
		<circle id="el_VRsoKf5fp_8" cx="299.9" cy="300.5" r="163.3"/>
		<circle cx="299.9" cy="300.5" r="141.9" id="el_WIstXGfTHtL"/>
		<circle id="el_fnANVuS7xwT" cx="299.9" cy="300.5" r="134.3"/>
		<g id="el_my_X1HZLXiZ">
			<g id="el_LRs0waRlzyb">
				<line x1="299.9" y1="182.8" x2="299.9" y2="174.3" id="el_UTm03wBze3S"/>
				<line x1="383.1" y1="217.3" x2="389.1" y2="211.2" id="el_G2dg1XOChW9"/>
				<line x1="417.6" y1="300.5" x2="426.2" y2="300.5" id="el_IoOnhFW7Aul"/>
				<line x1="383.2" y1="383.7" x2="389.2" y2="389.7" id="el_3u2uBYERgWp"/>
				<line x1="300" y1="418.2" x2="300" y2="426.7" id="el_icFqMmqek5i"/>
				<line x1="216.8" y1="383.8" x2="210.7" y2="389.8" id="el_ddeVnX_fGQQ"/>
				<line x1="182.3" y1="300.6" x2="173.7" y2="300.6" id="el_BBVLnpFznmz"/>
				<line x1="216.7" y1="217.3" x2="210.7" y2="211.3" id="el__DzlBSrORx-"/>
			</g>
			<g id="el_7OWpIixG8Et">
				<line x1="254.8" y1="191.8" x2="251.6" y2="183.9" id="el_RJnWtC25JP3"/>
				<line x1="344.9" y1="191.8" x2="348.2" y2="183.9" id="el_EavkUAlhBLE"/>
				<line x1="408.6" y1="255.4" x2="416.5" y2="252.2" id="el_yM_4aXP9XV4"/>
				<line x1="408.7" y1="345.5" x2="416.6" y2="348.8" id="el_uImwnlJz5gP"/>
				<line x1="345" y1="409.2" x2="348.3" y2="417.1" id="el_E3hQT8RRTCn"/>
				<line x1="255" y1="409.3" x2="251.7" y2="417.1" id="el_KdH8WE7452i"/>
				<line x1="191.2" y1="345.6" x2="183.4" y2="348.9" id="el_VJ88NMwgrun"/>
				<line x1="191.2" y1="255.5" x2="183.3" y2="252.3" id="el_iLqJVxpmAa4"/>
			</g>
			<g id="el_L3IH4DcFcBW">
				<line x1="365.7" y1="202.9" x2="370.5" y2="195.8" id="el_hYY1CkxFgSi"/>
				<line x1="415.5" y1="278" x2="423.8" y2="276.4" id="el_x2K_cpM5E2X"/>
				<line x1="397.5" y1="366.3" x2="404.6" y2="371" id="el_BkMMYzTEy6P"/>
				<line x1="322.5" y1="416" x2="324.1" y2="424.4" id="el_QgMyMdvxWWY"/>
				<line x1="234.2" y1="398.1" x2="229.4" y2="405.2" id="el_9k-JGV5wYGO"/>
				<line x1="184.4" y1="323" x2="176.1" y2="324.7" id="el_HGBFzWa2HU8"/>
				<line x1="202.3" y1="234.8" x2="195.3" y2="230" id="el_ytxk5O7QJEr"/>
				<line x1="277.4" y1="185" x2="275.8" y2="176.6" id="el_ljcbATjdzez"/>
			</g>
			<g id="el_N_gl4YlkGmy">
				<line x1="415.5" y1="322.9" x2="423.8" y2="324.5" id="el_wxsjjIWPPmo"/>
				<line x1="365.8" y1="398" x2="370.6" y2="405.1" id="el_LzX6Q4G_sH6"/>
				<line x1="277.5" y1="416" x2="275.9" y2="424.4" id="el_4pt24QmXUFc"/>
				<line x1="202.4" y1="366.4" x2="195.3" y2="371.1" id="el_m9xd501QbYM"/>
				<line x1="184.4" y1="278.1" x2="176" y2="276.5" id="el_MBHYyTm3tDK"/>
				<line x1="234.1" y1="203" x2="229.3" y2="195.9" id="el_RsQ4XAGSXHy"/>
				<line x1="322.3" y1="185" x2="324" y2="176.6" id="el_eqf56GDnlNl"/>
				<line x1="397.5" y1="234.7" x2="404.5" y2="229.9" id="el_D1lw1JdqFpI"/>
			</g>
		</g>
		<circle cx="299.9" cy="300.5" r="156.5" id="el_xrnnfzrvzSZ"/>
		<g id="el_XMdmfV-1xE7">
			<path d="M299.9,434.8c-35.9,0-69.6-14-95-39.3c-25.4-25.4-39.3-59.1-39.3-95c0-35.9,14-69.6,39.3-95&#10;&#9;&#9;&#9;&#9;c25.4-25.4,59.1-39.3,95-39.3s69.6,14,95,39.3c25.4,25.4,39.3,59.1,39.3,95c0,35.9-14,69.6-39.3,95&#10;&#9;&#9;&#9;&#9;C369.5,420.9,335.8,434.8,299.9,434.8z M299.9,170.9c-71.2,0-129.1,57.9-129.1,129.1c0,34.5,13.4,66.9,37.8,91.3&#10;&#9;&#9;&#9;&#9;c24.4,24.4,56.8,37.8,91.3,37.8s66.9-13.4,91.3-37.8c24.4-24.4,37.8-56.8,37.8-91.3C429.1,228.8,371.1,170.9,299.9,170.9z" id="el_yPXlcn2lhFE"/>
		</g>
	</g>
	<g id="el_0MVmnQYi4OY_lUcqgCLD4" data-animator-group="true" data-animator-type="1"><g id="el_0MVmnQYi4OY">
		<path id="el_J0L-p9v31yE" d="M298.1,243.7l-10.6,54.4c-1,5.1,1.1,10.5,5.5,13.3c2,1.3,4.4,2,6.9,2c2.5,0,4.9-0.7,6.9-2&#10;&#9;&#9;&#9;c4.4-2.8,6.5-8.2,5.5-13.3l-10.6-54.4C301.4,241.7,298.5,241.7,298.1,243.7z"/>
		<path d="M312.3,298.1l-3.2-16.6c-5.8-2.8-12.5-2.8-18.3,0l-3.2,16.5c-0.9,4.4,0.6,9.1,3.9,12c0.1,0.1,0.2,0.1,0.3,0.2&#10;&#9;&#9;&#9;c0.1,0.1,0.2,0.2,0.4,0.3c0.2,0.2,0.4,0.3,0.6,0.5c0,0,0.1,0.1,0.1,0.1c1.2,0.8,2.4,1.4,3.8,1.7c0,0,0,0,0,0&#10;&#9;&#9;&#9;c0.3,0.1,0.7,0.2,1,0.2c0,0,0,0,0,0c0.7,0.1,1.5,0.2,2.2,0.2c0.8,0,1.5-0.1,2.2-0.2c0,0,0,0,0,0c0.4-0.1,0.7-0.1,1-0.2&#10;&#9;&#9;&#9;c0,0,0,0,0,0c1.4-0.4,2.7-1,3.8-1.7c0,0,0.1-0.1,0.1-0.1c0.2-0.1,0.4-0.3,0.6-0.5c0.1-0.1,0.3-0.2,0.4-0.3&#10;&#9;&#9;&#9;c0.1-0.1,0.2-0.1,0.2-0.2C311.7,307.1,313.2,302.5,312.3,298.1z" id="el_cCRrJwk2Eps"/>
		<circle cx="299.9" cy="300.5" r="112.8" id="el_wgkaar51ba5"/>
	</g></g>
	<g id="el_jAzvDr0FGX0_yD4zIEvD1" data-animator-group="true" data-animator-type="1"><g id="el_jAzvDr0FGX0">
		<g id="el_UpMTOj-eB08">
			<path id="el_YkgJVh03iCj" d="M298.1,192.1l-10.9,107.1c-0.1,1.4-0.1,2.8,0.2,4.2c1.3,5.7,6.4,9.9,12.5,9.9&#10;&#9;&#9;&#9;&#9;c6.1,0,11.2-4.2,12.5-9.9c0.3-1.4,0.4-2.8,0.2-4.2l-10.9-107.1C301.5,189.9,298.3,189.9,298.1,192.1z"/>
			<path d="M288.9,282.5l-1.7,16.7c-0.1,1.4-0.1,2.8,0.2,4.2c1.3,5.7,6.4,9.9,12.5,9.9c6.1,0,11.2-4.2,12.5-9.9&#10;&#9;&#9;&#9;&#9;c0.3-1.4,0.4-2.8,0.2-4.2l-1.7-16.7C304.2,278.4,295.7,278.4,288.9,282.5z" id="el_E2M4-ZZ4CEv"/>
		</g>
		<circle cx="299.9" cy="300.5" r="112.8" id="el_G1R8YeJGCaW"/>
	</g></g>
	<g id="el_bLGYw790u8K">
		<circle cx="299.9" cy="300.5" r="16.5" id="el_NNIbogIi0Kb"/>
		<circle cx="299.9" cy="300.5" r="4.7" id="el_NZ0Ki1qDezr"/>
		<path d="M310.1,300.5c0,5.6-4.5,10.1-10.1,10.1" id="el_YeiXTGg4rs9"/>
	</g>
</g></g></g>
<g id="el_kzP73uCp6XP">
</g>
<script>(function(){var a=document.querySelector('#el_ksMrSYJ6Z'),b=a.querySelectorAll('style'),c=function(d){b.forEach(function(f){var g=f.textContent;g&amp;&amp;(f.textContent=g.replace(/transform-box:[^;\r\n]*/gi,'transform-box: '+d))})};c('initial'),window.requestAnimationFrame(function(){return c('fill-box')})})();</script></svg>